<svg width="150" height="56" viewBox="0 0 150 56" fill="none" xmlns="http://www.w3.org/2000/svg">
<path d="M60.8616 39.4461H54.9568V42.6008H60.3224V46.753H54.9568V54.1408H50.0496V35.2939H60.8347V39.4461H60.8616ZM67.8989 35.2939V54.1408H62.9917V35.2939H67.8989ZM78.1716 39.4461V54.1408H73.2645V39.4461H69.247V35.2939H82.1891V39.4461H78.1716ZM94.3762 39.4461H88.4714V42.6008H93.8369V46.753H88.4714V54.1408H83.5643V35.2939H94.3493V39.4461H94.3762ZM107.264 50.8514H100.281L99.1485 54.1139H93.9178L101.09 35.267H106.429L113.601 54.1139H108.37L107.237 50.8514H107.264ZM105.97 47.1305L103.759 40.8482L101.548 47.1305H105.943H105.97ZM114.949 54.1408V35.2939H119.856L128.888 46.807V35.2939H133.769V54.1408H128.888L119.856 42.6277V54.1408H114.949ZM147.25 40.1203C146.711 39.6889 146.172 39.3652 145.659 39.1496C145.12 38.9338 144.608 38.826 144.122 38.826C143.637 38.826 142.963 38.9878 142.585 39.2843C142.181 39.581 141.992 39.9854 141.992 40.4708C141.992 40.956 142.1 41.0909 142.289 41.3065C142.478 41.5223 142.747 41.7111 143.071 41.8729C143.394 42.0347 143.772 42.1694 144.176 42.2772C144.581 42.3852 144.985 42.5199 145.39 42.6548C146.98 43.194 148.167 43.8951 148.895 44.7848C149.623 45.6746 150 46.8339 150 48.2629C150 49.6919 149.838 50.0964 149.515 50.8784C149.191 51.6603 148.706 52.3343 148.086 52.9006C147.466 53.4667 146.684 53.8981 145.794 54.1948C144.877 54.4914 143.853 54.6532 142.72 54.6532C140.348 54.6532 138.137 53.9521 136.087 52.5231L138.19 48.5865C138.918 49.2336 139.647 49.719 140.374 50.0424C141.102 50.366 141.803 50.5278 142.504 50.5278C143.206 50.5278 143.907 50.3391 144.284 49.9886C144.689 49.6112 144.877 49.2067 144.877 48.7483C144.877 48.29 144.823 48.2091 144.715 48.0204C144.608 47.8046 144.446 47.6159 144.203 47.4541C143.961 47.2923 143.664 47.1036 143.286 46.9688C142.909 46.807 142.451 46.6452 141.911 46.4565C141.291 46.2678 140.671 46.0251 140.051 45.7824C139.431 45.5397 138.892 45.2162 138.433 44.8117C137.975 44.4074 137.57 43.922 137.274 43.3018C136.977 42.6817 136.842 41.9267 136.842 40.9831C136.842 40.0394 137.004 39.2036 137.301 38.4486C137.597 37.6936 138.029 37.0465 138.595 36.5073C139.161 35.968 139.835 35.5366 140.644 35.2401C141.453 34.9434 142.343 34.7816 143.367 34.7816C144.392 34.7816 145.282 34.9165 146.279 35.1592C147.304 35.4288 148.275 35.8062 149.191 36.2915L147.25 40.1203Z" fill="white"/>
<path d="M49.0518 14.8025H17.6673C17.2628 14.8025 16.9123 15.0181 16.6966 15.3687L9.09321 28.6073C8.66179 29.3623 7.58332 29.3354 7.17881 28.6073L0.141549 15.9619C-0.0471829 15.6383 -0.0471829 15.2069 0.141549 14.8834L8.14946 0.566145C8.33818 0.215626 8.71561 0 9.12012 0H56.5205C57.3832 0 57.8955 0.943744 57.4641 1.67169L49.9955 14.2902C49.8067 14.6138 49.4292 14.8294 49.0518 14.8294V14.8025Z" fill="#08C7BF"/>
<path d="M42.6885 33.6762H28.8298C28.4253 33.6762 28.0748 33.892 27.8591 34.2425L15.699 55.2195C15.2676 55.9743 14.1891 55.9474 13.7846 55.2195L6.72039 42.601C6.53168 42.2773 6.53168 41.8459 6.72039 41.5223L19.2851 19.44C19.4738 19.0895 19.8512 18.8737 20.2557 18.8737H50.1573C51.0201 18.8737 51.5322 19.8174 51.1008 20.5453L43.6323 33.164C43.4436 33.4875 43.066 33.7033 42.6885 33.7033V33.6762Z" fill="#08C7BF"/>
</svg>
